G04 EAGLE Gerber RS-274X export*
G75*
%MOMM*%
%FSLAX34Y34*%
%LPD*%
%INBottom Copper*%
%IPPOS*%
%AMOC8*
5,1,8,0,0,1.08239X$1,22.5*%
G01*
G04 Define Apertures*
%ADD10C,3.516000*%
%ADD11C,0.152400*%
%ADD12C,0.756400*%
G36*
X59020Y10220D02*
X58723Y10160D01*
X10922Y10160D01*
X10647Y10211D01*
X10392Y10375D01*
X10220Y10625D01*
X10160Y10922D01*
X10160Y263908D01*
X10211Y264183D01*
X10375Y264438D01*
X10625Y264610D01*
X10922Y264670D01*
X189738Y264670D01*
X190013Y264619D01*
X190268Y264455D01*
X190440Y264205D01*
X190500Y263908D01*
X190500Y241616D01*
X190444Y241330D01*
X190277Y241077D01*
X177862Y228662D01*
X177805Y228570D01*
X177800Y228538D01*
X177800Y114388D01*
X177825Y114283D01*
X177844Y114256D01*
X202977Y89123D01*
X203140Y88882D01*
X203200Y88584D01*
X203200Y35139D01*
X203155Y34881D01*
X202998Y34622D01*
X202752Y34445D01*
X202456Y34377D01*
X202158Y34431D01*
X201904Y34596D01*
X201734Y34848D01*
X200196Y38562D01*
X194822Y43936D01*
X187800Y46844D01*
X180200Y46844D01*
X173178Y43936D01*
X167804Y38562D01*
X165590Y33216D01*
X165446Y32990D01*
X165200Y32813D01*
X164904Y32746D01*
X164606Y32799D01*
X164352Y32964D01*
X164182Y33216D01*
X162776Y36611D01*
X158371Y41016D01*
X152615Y43400D01*
X146385Y43400D01*
X140629Y41016D01*
X136224Y36611D01*
X133840Y30855D01*
X133840Y24625D01*
X136224Y18869D01*
X140629Y14464D01*
X146385Y12080D01*
X152615Y12080D01*
X158371Y14464D01*
X162776Y18869D01*
X164182Y22264D01*
X164326Y22490D01*
X164572Y22667D01*
X164868Y22734D01*
X165166Y22681D01*
X165421Y22516D01*
X165590Y22264D01*
X167804Y16918D01*
X173262Y11461D01*
X173415Y11241D01*
X173485Y10946D01*
X173434Y10647D01*
X173271Y10392D01*
X173020Y10220D01*
X172723Y10160D01*
X81277Y10160D01*
X81013Y10207D01*
X80755Y10366D01*
X80580Y10614D01*
X80515Y10910D01*
X80570Y11208D01*
X80738Y11461D01*
X86196Y16918D01*
X88410Y22264D01*
X88554Y22490D01*
X88800Y22667D01*
X89096Y22734D01*
X89394Y22681D01*
X89648Y22516D01*
X89818Y22264D01*
X91224Y18869D01*
X95629Y14464D01*
X101385Y12080D01*
X107615Y12080D01*
X113371Y14464D01*
X117776Y18869D01*
X120160Y24625D01*
X120160Y30855D01*
X117776Y36611D01*
X113371Y41016D01*
X107615Y43400D01*
X101385Y43400D01*
X95629Y41016D01*
X91224Y36611D01*
X89818Y33216D01*
X89674Y32990D01*
X89428Y32813D01*
X89132Y32746D01*
X88834Y32799D01*
X88579Y32964D01*
X88410Y33216D01*
X86196Y38562D01*
X80822Y43936D01*
X73800Y46844D01*
X66200Y46844D01*
X59178Y43936D01*
X53804Y38562D01*
X50896Y31540D01*
X50896Y23940D01*
X53804Y16918D01*
X59262Y11461D01*
X59415Y11241D01*
X59485Y10946D01*
X59434Y10647D01*
X59271Y10392D01*
X59020Y10220D01*
G37*
%LPC*%
G36*
X147662Y49304D02*
X152058Y49304D01*
X154855Y52101D01*
X155096Y52264D01*
X155393Y52324D01*
X157157Y52324D01*
X171196Y66363D01*
X171196Y223067D01*
X171252Y223353D01*
X171419Y223605D01*
X174216Y226402D01*
X174216Y230798D01*
X171108Y233906D01*
X166712Y233906D01*
X163604Y230798D01*
X163604Y226402D01*
X166401Y223605D01*
X166564Y223364D01*
X166624Y223067D01*
X166624Y68573D01*
X166568Y68287D01*
X166401Y68034D01*
X155709Y57342D01*
X155479Y57184D01*
X155183Y57119D01*
X154885Y57175D01*
X154632Y57342D01*
X152058Y59916D01*
X147662Y59916D01*
X144554Y56808D01*
X144554Y52412D01*
X147662Y49304D01*
G37*
G36*
X147662Y61860D02*
X152058Y61860D01*
X155166Y64968D01*
X155166Y69364D01*
X152369Y72161D01*
X152206Y72402D01*
X152146Y72699D01*
X152146Y87815D01*
X123385Y116576D01*
X123222Y116817D01*
X123162Y117115D01*
X123162Y121070D01*
X120054Y124178D01*
X115658Y124178D01*
X112550Y121070D01*
X112550Y116674D01*
X115658Y113566D01*
X119613Y113566D01*
X119899Y113510D01*
X120152Y113343D01*
X147351Y86144D01*
X147514Y85903D01*
X147574Y85605D01*
X147574Y72699D01*
X147518Y72413D01*
X147351Y72161D01*
X144554Y69364D01*
X144554Y64968D01*
X147662Y61860D01*
G37*
%LPD*%
G36*
X202735Y10220D02*
X202438Y10160D01*
X195277Y10160D01*
X195013Y10207D01*
X194755Y10366D01*
X194580Y10614D01*
X194515Y10910D01*
X194570Y11208D01*
X194738Y11461D01*
X200196Y16918D01*
X201734Y20633D01*
X201874Y20853D01*
X202119Y21033D01*
X202414Y21103D01*
X202713Y21052D01*
X202968Y20888D01*
X203140Y20638D01*
X203200Y20341D01*
X203200Y10922D01*
X203149Y10647D01*
X202985Y10392D01*
X202735Y10220D01*
G37*
D10*
X70000Y27740D03*
X184000Y27740D03*
D11*
X149860Y86868D02*
X117856Y118872D01*
D12*
X117856Y118872D03*
X149860Y67166D03*
D11*
X149860Y86868D01*
D12*
X149860Y54610D03*
D11*
X156210Y54610D01*
X168910Y67310D01*
X168910Y228600D01*
D12*
X168910Y228600D03*
M02*
