G04 EAGLE Gerber RS-274X export*
G75*
%MOMM*%
%FSLAX34Y34*%
%LPD*%
%INTop Copper*%
%IPPOS*%
%AMOC8*
5,1,8,0,0,1.08239X$1,22.5*%
G01*
G04 Define Apertures*
%ADD10C,0.500000*%
%ADD11C,0.275000*%
%ADD12C,1.700000*%
%ADD13C,3.516000*%
%ADD14R,1.200000X2.000000*%
%ADD15C,0.756400*%
%ADD16C,0.152400*%
D10*
X44545Y100520D02*
X44545Y78020D01*
X29545Y78020D01*
X29545Y100520D01*
X44545Y100520D01*
X44545Y82770D02*
X29545Y82770D01*
X29545Y87520D02*
X44545Y87520D01*
X44545Y92270D02*
X29545Y92270D01*
X29545Y97020D02*
X44545Y97020D01*
X69945Y100520D02*
X69945Y78020D01*
X54945Y78020D01*
X54945Y100520D01*
X69945Y100520D01*
X69945Y82770D02*
X54945Y82770D01*
X54945Y87520D02*
X69945Y87520D01*
X69945Y92270D02*
X54945Y92270D01*
X54945Y97020D02*
X69945Y97020D01*
X95345Y100520D02*
X95345Y78020D01*
X80345Y78020D01*
X80345Y100520D01*
X95345Y100520D01*
X95345Y82770D02*
X80345Y82770D01*
X80345Y87520D02*
X95345Y87520D01*
X95345Y92270D02*
X80345Y92270D01*
X80345Y97020D02*
X95345Y97020D01*
X120745Y100520D02*
X120745Y78020D01*
X105745Y78020D01*
X105745Y100520D01*
X120745Y100520D01*
X120745Y82770D02*
X105745Y82770D01*
X105745Y87520D02*
X120745Y87520D01*
X120745Y92270D02*
X105745Y92270D01*
X105745Y97020D02*
X120745Y97020D01*
X146145Y100520D02*
X146145Y78020D01*
X131145Y78020D01*
X131145Y100520D01*
X146145Y100520D01*
X146145Y82770D02*
X131145Y82770D01*
X131145Y87520D02*
X146145Y87520D01*
X146145Y92270D02*
X131145Y92270D01*
X131145Y97020D02*
X146145Y97020D01*
X171545Y100520D02*
X171545Y78020D01*
X156545Y78020D01*
X156545Y100520D01*
X171545Y100520D01*
X171545Y82770D02*
X156545Y82770D01*
X156545Y87520D02*
X171545Y87520D01*
X171545Y92270D02*
X156545Y92270D01*
X156545Y97020D02*
X171545Y97020D01*
X196945Y100520D02*
X196945Y78020D01*
X181945Y78020D01*
X181945Y100520D01*
X196945Y100520D01*
X196945Y82770D02*
X181945Y82770D01*
X181945Y87520D02*
X196945Y87520D01*
X196945Y92270D02*
X181945Y92270D01*
X181945Y97020D02*
X196945Y97020D01*
X196945Y239670D02*
X196945Y262170D01*
X196945Y239670D02*
X181945Y239670D01*
X181945Y262170D01*
X196945Y262170D01*
X196945Y244420D02*
X181945Y244420D01*
X181945Y249170D02*
X196945Y249170D01*
X196945Y253920D02*
X181945Y253920D01*
X181945Y258670D02*
X196945Y258670D01*
X171545Y262170D02*
X171545Y239670D01*
X156545Y239670D01*
X156545Y262170D01*
X171545Y262170D01*
X171545Y244420D02*
X156545Y244420D01*
X156545Y249170D02*
X171545Y249170D01*
X171545Y253920D02*
X156545Y253920D01*
X156545Y258670D02*
X171545Y258670D01*
X146145Y262170D02*
X146145Y239670D01*
X131145Y239670D01*
X131145Y262170D01*
X146145Y262170D01*
X146145Y244420D02*
X131145Y244420D01*
X131145Y249170D02*
X146145Y249170D01*
X146145Y253920D02*
X131145Y253920D01*
X131145Y258670D02*
X146145Y258670D01*
X120745Y262170D02*
X120745Y239670D01*
X105745Y239670D01*
X105745Y262170D01*
X120745Y262170D01*
X120745Y244420D02*
X105745Y244420D01*
X105745Y249170D02*
X120745Y249170D01*
X120745Y253920D02*
X105745Y253920D01*
X105745Y258670D02*
X120745Y258670D01*
X95345Y262170D02*
X95345Y239670D01*
X80345Y239670D01*
X80345Y262170D01*
X95345Y262170D01*
X95345Y244420D02*
X80345Y244420D01*
X80345Y249170D02*
X95345Y249170D01*
X95345Y253920D02*
X80345Y253920D01*
X80345Y258670D02*
X95345Y258670D01*
X69945Y262170D02*
X69945Y239670D01*
X54945Y239670D01*
X54945Y262170D01*
X69945Y262170D01*
X69945Y244420D02*
X54945Y244420D01*
X54945Y249170D02*
X69945Y249170D01*
X69945Y253920D02*
X54945Y253920D01*
X54945Y258670D02*
X69945Y258670D01*
X44545Y262170D02*
X44545Y239670D01*
X29545Y239670D01*
X29545Y262170D01*
X44545Y262170D01*
X44545Y244420D02*
X29545Y244420D01*
X29545Y249170D02*
X44545Y249170D01*
X44545Y253920D02*
X29545Y253920D01*
X29545Y258670D02*
X44545Y258670D01*
D11*
X157437Y147881D02*
X179687Y147881D01*
X157437Y147881D02*
X157437Y156131D01*
X179687Y156131D01*
X179687Y147881D01*
X179687Y150493D02*
X157437Y150493D01*
X157437Y153105D02*
X179687Y153105D01*
X179687Y155717D02*
X157437Y155717D01*
X157437Y173281D02*
X179687Y173281D01*
X157437Y173281D02*
X157437Y181531D01*
X179687Y181531D01*
X179687Y173281D01*
X179687Y175893D02*
X157437Y175893D01*
X157437Y178505D02*
X179687Y178505D01*
X179687Y181117D02*
X157437Y181117D01*
D12*
X26830Y157086D03*
X26830Y182486D03*
X52230Y157086D03*
X52230Y182486D03*
X77630Y157086D03*
X77630Y182486D03*
X103030Y157086D03*
X102462Y181560D03*
D13*
X70000Y27740D03*
X184000Y27740D03*
D14*
X162000Y53740D03*
X137000Y53740D03*
X117000Y53740D03*
X92000Y53740D03*
D15*
X117856Y118872D03*
X149860Y67166D03*
D16*
X162000Y55026D02*
X162000Y53740D01*
X162000Y55026D02*
X149860Y67166D01*
X87845Y211431D02*
X87845Y250920D01*
X113816Y122912D02*
X117856Y118872D01*
X113816Y122912D02*
X113816Y185460D01*
X87845Y211431D01*
X117348Y54864D02*
X117000Y53740D01*
X117348Y54864D02*
X135718Y73234D01*
X173527Y73234D01*
X189445Y89152D01*
X189445Y89270D01*
X137160Y54864D02*
X137000Y53740D01*
D15*
X149860Y54610D03*
D16*
X149606Y54864D02*
X137160Y54864D01*
X149606Y54864D02*
X149860Y54610D01*
D15*
X168910Y228600D03*
D16*
X168910Y230267D02*
X176331Y237688D01*
X168910Y230267D02*
X168910Y228600D01*
X176331Y237688D02*
X176331Y237806D01*
X189445Y250920D01*
X91440Y54864D02*
X92000Y53740D01*
X65532Y153924D02*
X65532Y247833D01*
X62445Y250920D01*
X91440Y60157D02*
X91440Y54864D01*
X75559Y143897D02*
X65532Y153924D01*
X75559Y76038D02*
X91440Y60157D01*
X75559Y76038D02*
X75559Y143897D01*
M02*
