G04 EAGLE Gerber RS-274X export*
G75*
%MOMM*%
%FSLAX34Y34*%
%LPD*%
%INSilkscreen Top*%
%IPPOS*%
%AMOC8*
5,1,8,0,0,1.08239X$1,22.5*%
G01*
G04 Define Apertures*
%ADD10C,0.100000*%
%ADD11C,0.127000*%
%ADD12C,0.500000*%
%ADD13C,0.101600*%
G36*
X233722Y140112D02*
X233722Y141331D01*
X233922Y141352D01*
X234450Y141383D01*
X234941Y141401D01*
X234941Y141429D01*
X234614Y141610D01*
X234334Y141819D01*
X234101Y142055D01*
X233915Y142318D01*
X233772Y142617D01*
X233670Y142959D01*
X233609Y143345D01*
X233589Y143775D01*
X233604Y144114D01*
X233648Y144431D01*
X233721Y144726D01*
X233823Y144999D01*
X233955Y145250D01*
X234117Y145478D01*
X234307Y145685D01*
X234527Y145869D01*
X234779Y146032D01*
X235064Y146172D01*
X235382Y146292D01*
X235734Y146389D01*
X236119Y146465D01*
X236538Y146519D01*
X236990Y146552D01*
X237476Y146562D01*
X237956Y146552D01*
X238405Y146519D01*
X238823Y146464D01*
X239210Y146388D01*
X239566Y146290D01*
X239892Y146170D01*
X240186Y146029D01*
X240449Y145866D01*
X240681Y145681D01*
X240883Y145474D01*
X241053Y145245D01*
X241192Y144995D01*
X241301Y144722D01*
X241378Y144428D01*
X241425Y144113D01*
X241440Y143775D01*
X241420Y143355D01*
X241358Y142971D01*
X241255Y142623D01*
X241111Y142311D01*
X240926Y142035D01*
X240699Y141795D01*
X240432Y141590D01*
X240123Y141422D01*
X240123Y141387D01*
X240449Y141408D01*
X241314Y141415D01*
X244277Y141415D01*
X244277Y140154D01*
X235270Y140154D01*
X234298Y140144D01*
X233722Y140112D01*
G37*
%LPC*%
G36*
X237602Y141415D02*
X237963Y141422D01*
X238299Y141444D01*
X238611Y141482D01*
X238898Y141534D01*
X239160Y141601D01*
X239399Y141683D01*
X239612Y141779D01*
X239801Y141891D01*
X239967Y142019D01*
X240111Y142166D01*
X240232Y142332D01*
X240332Y142516D01*
X240409Y142719D01*
X240464Y142940D01*
X240498Y143180D01*
X240509Y143439D01*
X240498Y143665D01*
X240465Y143876D01*
X240412Y144071D01*
X240336Y144250D01*
X240239Y144414D01*
X240121Y144561D01*
X239980Y144692D01*
X239819Y144808D01*
X239632Y144909D01*
X239415Y144996D01*
X239170Y145071D01*
X238895Y145131D01*
X238591Y145178D01*
X238258Y145212D01*
X237896Y145232D01*
X237504Y145239D01*
X237122Y145232D01*
X236769Y145212D01*
X236444Y145179D01*
X236147Y145132D01*
X235878Y145072D01*
X235638Y144998D01*
X235426Y144912D01*
X235242Y144812D01*
X235083Y144697D01*
X234945Y144566D01*
X234828Y144420D01*
X234732Y144258D01*
X234658Y144081D01*
X234605Y143887D01*
X234573Y143678D01*
X234562Y143453D01*
X234582Y143098D01*
X234641Y142785D01*
X234740Y142512D01*
X234878Y142280D01*
X235057Y142081D01*
X235281Y141907D01*
X235549Y141758D01*
X235862Y141635D01*
X236221Y141539D01*
X236631Y141470D01*
X237091Y141428D01*
X237602Y141415D01*
G37*
%LPD*%
G36*
X237504Y93571D02*
X237029Y93584D01*
X236585Y93624D01*
X236171Y93690D01*
X235788Y93783D01*
X235436Y93903D01*
X235114Y94049D01*
X234823Y94221D01*
X234562Y94420D01*
X234333Y94646D01*
X234133Y94898D01*
X233965Y95177D01*
X233827Y95482D01*
X233720Y95814D01*
X233643Y96172D01*
X233597Y96557D01*
X233582Y96968D01*
X233597Y97388D01*
X233642Y97779D01*
X233716Y98142D01*
X233821Y98475D01*
X233955Y98781D01*
X234120Y99057D01*
X234314Y99305D01*
X234538Y99524D01*
X234793Y99716D01*
X235082Y99883D01*
X235403Y100024D01*
X235757Y100139D01*
X236145Y100229D01*
X236565Y100293D01*
X237018Y100331D01*
X237504Y100344D01*
X237985Y100330D01*
X238435Y100289D01*
X238853Y100221D01*
X239239Y100125D01*
X239594Y100002D01*
X239916Y99851D01*
X240207Y99673D01*
X240467Y99468D01*
X240695Y99237D01*
X240892Y98981D01*
X241060Y98700D01*
X241197Y98395D01*
X241303Y98065D01*
X241379Y97710D01*
X241425Y97330D01*
X241440Y96926D01*
X241424Y96524D01*
X241377Y96147D01*
X241298Y95795D01*
X241187Y95469D01*
X241045Y95168D01*
X240871Y94893D01*
X240665Y94643D01*
X240428Y94419D01*
X240161Y94220D01*
X239866Y94048D01*
X239542Y93902D01*
X239191Y93783D01*
X238811Y93690D01*
X238404Y93624D01*
X237968Y93584D01*
X237504Y93571D01*
G37*
%LPC*%
G36*
X237504Y94895D02*
X237867Y94902D01*
X238207Y94925D01*
X238523Y94963D01*
X238816Y95016D01*
X239086Y95085D01*
X239333Y95169D01*
X239556Y95267D01*
X239756Y95382D01*
X239932Y95512D01*
X240085Y95660D01*
X240214Y95825D01*
X240320Y96008D01*
X240403Y96208D01*
X240462Y96425D01*
X240497Y96660D01*
X240509Y96912D01*
X240497Y97185D01*
X240463Y97439D01*
X240406Y97672D01*
X240327Y97885D01*
X240224Y98077D01*
X240099Y98249D01*
X239951Y98401D01*
X239780Y98533D01*
X239585Y98647D01*
X239365Y98746D01*
X239119Y98830D01*
X238847Y98898D01*
X238550Y98952D01*
X238227Y98990D01*
X237878Y99012D01*
X237504Y99020D01*
X237125Y99013D01*
X236773Y98991D01*
X236448Y98955D01*
X236150Y98904D01*
X235878Y98838D01*
X235633Y98758D01*
X235415Y98663D01*
X235224Y98554D01*
X235058Y98428D01*
X234913Y98282D01*
X234791Y98116D01*
X234691Y97930D01*
X234613Y97724D01*
X234558Y97499D01*
X234524Y97254D01*
X234513Y96989D01*
X234525Y96722D01*
X234559Y96474D01*
X234615Y96245D01*
X234695Y96036D01*
X234797Y95845D01*
X234921Y95674D01*
X235068Y95522D01*
X235238Y95389D01*
X235432Y95273D01*
X235652Y95173D01*
X235897Y95088D01*
X236167Y95018D01*
X236463Y94964D01*
X236785Y94926D01*
X237132Y94903D01*
X237504Y94895D01*
G37*
%LPD*%
G36*
X237504Y194009D02*
X237029Y194022D01*
X236585Y194062D01*
X236171Y194128D01*
X235788Y194221D01*
X235436Y194340D01*
X235114Y194486D01*
X234823Y194659D01*
X234562Y194858D01*
X234333Y195083D01*
X234133Y195335D01*
X233965Y195614D01*
X233827Y195919D01*
X233720Y196251D01*
X233643Y196609D01*
X233597Y196994D01*
X233582Y197405D01*
X233597Y197825D01*
X233642Y198217D01*
X233716Y198579D01*
X233821Y198913D01*
X233955Y199218D01*
X234120Y199495D01*
X234314Y199743D01*
X234538Y199962D01*
X234793Y200154D01*
X235082Y200320D01*
X235403Y200461D01*
X235757Y200576D01*
X236145Y200666D01*
X236565Y200730D01*
X237018Y200768D01*
X237504Y200781D01*
X237985Y200768D01*
X238435Y200727D01*
X238853Y200658D01*
X239239Y200562D01*
X239594Y200439D01*
X239916Y200289D01*
X240207Y200111D01*
X240467Y199906D01*
X240695Y199675D01*
X240892Y199419D01*
X241060Y199138D01*
X241197Y198832D01*
X241303Y198502D01*
X241379Y198147D01*
X241425Y197768D01*
X241440Y197363D01*
X241424Y196961D01*
X241377Y196584D01*
X241298Y196233D01*
X241187Y195907D01*
X241045Y195606D01*
X240871Y195331D01*
X240665Y195081D01*
X240428Y194856D01*
X240161Y194657D01*
X239866Y194485D01*
X239542Y194340D01*
X239191Y194220D01*
X238811Y194128D01*
X238404Y194062D01*
X237968Y194022D01*
X237504Y194009D01*
G37*
%LPC*%
G36*
X237504Y195332D02*
X237867Y195340D01*
X238207Y195363D01*
X238523Y195401D01*
X238816Y195454D01*
X239086Y195522D01*
X239333Y195606D01*
X239556Y195705D01*
X239756Y195819D01*
X239932Y195949D01*
X240085Y196097D01*
X240214Y196262D01*
X240320Y196445D01*
X240403Y196645D01*
X240462Y196862D01*
X240497Y197097D01*
X240509Y197349D01*
X240497Y197623D01*
X240463Y197876D01*
X240406Y198109D01*
X240327Y198322D01*
X240224Y198515D01*
X240099Y198687D01*
X239951Y198839D01*
X239780Y198971D01*
X239585Y199085D01*
X239365Y199184D01*
X239119Y199267D01*
X238847Y199336D01*
X238550Y199389D01*
X238227Y199427D01*
X237878Y199450D01*
X237504Y199458D01*
X237125Y199450D01*
X236773Y199428D01*
X236448Y199392D01*
X236150Y199341D01*
X235878Y199276D01*
X235633Y199196D01*
X235415Y199101D01*
X235224Y198992D01*
X235058Y198865D01*
X234913Y198719D01*
X234791Y198553D01*
X234691Y198368D01*
X234613Y198162D01*
X234558Y197937D01*
X234524Y197691D01*
X234513Y197426D01*
X234525Y197159D01*
X234559Y196911D01*
X234615Y196683D01*
X234695Y196473D01*
X234797Y196283D01*
X234921Y196111D01*
X235068Y195959D01*
X235238Y195826D01*
X235432Y195710D01*
X235652Y195610D01*
X235897Y195525D01*
X236167Y195456D01*
X236463Y195402D01*
X236785Y195363D01*
X237132Y195340D01*
X237504Y195332D01*
G37*
%LPD*%
G36*
X239185Y155766D02*
X238899Y155778D01*
X238631Y155814D01*
X238379Y155874D01*
X238145Y155959D01*
X237927Y156068D01*
X237727Y156201D01*
X237544Y156358D01*
X237378Y156539D01*
X237230Y156748D01*
X237100Y156986D01*
X236988Y157253D01*
X236895Y157551D01*
X236820Y157878D01*
X236763Y158234D01*
X236725Y158620D01*
X236706Y159036D01*
X236678Y160738D01*
X236264Y160738D01*
X236041Y160732D01*
X235835Y160714D01*
X235645Y160683D01*
X235471Y160640D01*
X235314Y160585D01*
X235173Y160518D01*
X235049Y160438D01*
X234941Y160346D01*
X234847Y160241D01*
X234766Y160122D01*
X234697Y159989D01*
X234641Y159842D01*
X234598Y159681D01*
X234566Y159506D01*
X234548Y159316D01*
X234541Y159113D01*
X234559Y158719D01*
X234613Y158381D01*
X234703Y158102D01*
X234829Y157881D01*
X234994Y157707D01*
X235201Y157573D01*
X235452Y157476D01*
X235746Y157418D01*
X235627Y156102D01*
X235379Y156151D01*
X235148Y156220D01*
X234932Y156307D01*
X234732Y156413D01*
X234548Y156537D01*
X234381Y156680D01*
X234229Y156842D01*
X234093Y157023D01*
X233973Y157222D01*
X233869Y157440D01*
X233782Y157677D01*
X233710Y157932D01*
X233654Y158207D01*
X233614Y158499D01*
X233590Y158811D01*
X233582Y159141D01*
X233592Y159488D01*
X233623Y159812D01*
X233674Y160114D01*
X233746Y160393D01*
X233838Y160651D01*
X233950Y160887D01*
X234083Y161100D01*
X234237Y161292D01*
X234410Y161461D01*
X234601Y161607D01*
X234810Y161731D01*
X235038Y161833D01*
X235284Y161912D01*
X235548Y161968D01*
X235830Y162002D01*
X236131Y162013D01*
X239395Y162013D01*
X239658Y162022D01*
X239886Y162050D01*
X240080Y162096D01*
X240239Y162160D01*
X240363Y162250D01*
X240452Y162374D01*
X240505Y162530D01*
X240523Y162720D01*
X240510Y162915D01*
X240474Y163134D01*
X241258Y163134D01*
X241307Y162894D01*
X241342Y162652D01*
X241363Y162407D01*
X241370Y162160D01*
X241347Y161834D01*
X241278Y161555D01*
X241163Y161324D01*
X241002Y161141D01*
X240792Y160999D01*
X240530Y160891D01*
X240216Y160819D01*
X239850Y160780D01*
X239850Y160738D01*
X240253Y160487D01*
X240592Y160216D01*
X240867Y159925D01*
X241079Y159614D01*
X241237Y159276D01*
X241350Y158904D01*
X241418Y158497D01*
X241440Y158056D01*
X241431Y157779D01*
X241402Y157520D01*
X241355Y157279D01*
X241290Y157056D01*
X241205Y156850D01*
X241101Y156663D01*
X240979Y156492D01*
X240838Y156340D01*
X240680Y156205D01*
X240509Y156089D01*
X240323Y155990D01*
X240123Y155909D01*
X239910Y155846D01*
X239682Y155801D01*
X239441Y155775D01*
X239185Y155766D01*
G37*
%LPC*%
G36*
X239206Y157061D02*
X239497Y157082D01*
X239752Y157144D01*
X239973Y157248D01*
X240158Y157394D01*
X240305Y157578D01*
X240411Y157798D01*
X240474Y158053D01*
X240495Y158343D01*
X240475Y158680D01*
X240416Y158998D01*
X240317Y159296D01*
X240179Y159576D01*
X240007Y159831D01*
X239806Y160058D01*
X239575Y160257D01*
X239314Y160427D01*
X239038Y160563D01*
X238757Y160660D01*
X238472Y160719D01*
X238183Y160738D01*
X237560Y160738D01*
X237588Y159359D01*
X237605Y158941D01*
X237641Y158577D01*
X237696Y158267D01*
X237770Y158010D01*
X237866Y157794D01*
X237984Y157605D01*
X238125Y157442D01*
X238288Y157306D01*
X238477Y157199D01*
X238693Y157123D01*
X238936Y157077D01*
X239206Y157061D01*
G37*
%LPD*%
G36*
X233722Y202359D02*
X233722Y203549D01*
X233911Y203563D01*
X234265Y203581D01*
X235018Y203605D01*
X235018Y203626D01*
X234646Y203837D01*
X234335Y204062D01*
X234085Y204303D01*
X233897Y204558D01*
X233759Y204835D01*
X233661Y205141D01*
X233602Y205476D01*
X233582Y205840D01*
X233603Y206248D01*
X233668Y206611D01*
X233775Y206929D01*
X233925Y207202D01*
X234122Y207433D01*
X234370Y207626D01*
X234668Y207782D01*
X235018Y207899D01*
X235018Y207920D01*
X234663Y208126D01*
X234361Y208353D01*
X234113Y208601D01*
X233918Y208869D01*
X233771Y209162D01*
X233666Y209484D01*
X233603Y209836D01*
X233582Y210217D01*
X233592Y210494D01*
X233621Y210752D01*
X233670Y210990D01*
X233738Y211209D01*
X233825Y211408D01*
X233932Y211587D01*
X234059Y211747D01*
X234205Y211887D01*
X234374Y212010D01*
X234567Y212116D01*
X234785Y212205D01*
X235028Y212279D01*
X235296Y212336D01*
X235589Y212377D01*
X235907Y212401D01*
X236250Y212409D01*
X241300Y212409D01*
X241300Y211163D01*
X236495Y211163D01*
X235988Y211144D01*
X235566Y211087D01*
X235386Y211045D01*
X235228Y210993D01*
X235091Y210932D01*
X234976Y210861D01*
X234877Y210779D01*
X234792Y210681D01*
X234720Y210568D01*
X234660Y210439D01*
X234614Y210296D01*
X234582Y210138D01*
X234562Y209964D01*
X234555Y209776D01*
X234565Y209575D01*
X234594Y209386D01*
X234642Y209208D01*
X234709Y209041D01*
X234795Y208886D01*
X234900Y208743D01*
X235025Y208611D01*
X235168Y208491D01*
X235329Y208383D01*
X235507Y208290D01*
X235700Y208211D01*
X235910Y208147D01*
X236135Y208096D01*
X236377Y208061D01*
X236635Y208039D01*
X236909Y208032D01*
X241300Y208032D01*
X241300Y206785D01*
X236495Y206785D01*
X235988Y206766D01*
X235566Y206710D01*
X235386Y206668D01*
X235228Y206616D01*
X235091Y206555D01*
X234976Y206484D01*
X234877Y206401D01*
X234792Y206303D01*
X234720Y206190D01*
X234660Y206062D01*
X234614Y205919D01*
X234582Y205760D01*
X234562Y205587D01*
X234555Y205398D01*
X234565Y205202D01*
X234594Y205017D01*
X234642Y204842D01*
X234709Y204677D01*
X234796Y204523D01*
X234902Y204379D01*
X235027Y204246D01*
X235172Y204124D01*
X235334Y204014D01*
X235511Y203918D01*
X235705Y203838D01*
X235914Y203772D01*
X236139Y203720D01*
X236380Y203684D01*
X236636Y203662D01*
X236909Y203654D01*
X241300Y203654D01*
X241300Y202401D01*
X235340Y202401D01*
X234273Y202390D01*
X233933Y202377D01*
X233722Y202359D01*
G37*
G36*
X237462Y116703D02*
X237006Y116717D01*
X236578Y116758D01*
X236177Y116827D01*
X235804Y116923D01*
X235458Y117046D01*
X235139Y117198D01*
X234847Y117376D01*
X234583Y117582D01*
X234349Y117814D01*
X234145Y118069D01*
X233973Y118347D01*
X233832Y118649D01*
X233723Y118975D01*
X233644Y119324D01*
X233598Y119697D01*
X233582Y120093D01*
X233598Y120497D01*
X233645Y120876D01*
X233723Y121228D01*
X233834Y121555D01*
X233975Y121855D01*
X234148Y122129D01*
X234353Y122377D01*
X234589Y122599D01*
X234856Y122794D01*
X235155Y122964D01*
X235485Y123107D01*
X235847Y123225D01*
X236240Y123316D01*
X236665Y123382D01*
X237121Y123421D01*
X237609Y123434D01*
X237777Y123434D01*
X237777Y118027D01*
X238094Y118035D01*
X238391Y118061D01*
X238670Y118103D01*
X238931Y118162D01*
X239173Y118237D01*
X239396Y118330D01*
X239601Y118440D01*
X239787Y118566D01*
X239953Y118709D01*
X240097Y118867D01*
X240218Y119040D01*
X240318Y119230D01*
X240395Y119434D01*
X240450Y119655D01*
X240484Y119891D01*
X240495Y120142D01*
X240474Y120531D01*
X240412Y120880D01*
X240309Y121188D01*
X240165Y121455D01*
X239990Y121682D01*
X239792Y121869D01*
X239573Y122017D01*
X239332Y122124D01*
X239647Y123231D01*
X239864Y123139D01*
X240067Y123034D01*
X240256Y122915D01*
X240432Y122783D01*
X240593Y122637D01*
X240740Y122478D01*
X240873Y122305D01*
X240992Y122119D01*
X241097Y121919D01*
X241188Y121706D01*
X241265Y121479D01*
X241328Y121238D01*
X241377Y120985D01*
X241412Y120717D01*
X241433Y120436D01*
X241440Y120142D01*
X241424Y119734D01*
X241377Y119352D01*
X241299Y118994D01*
X241190Y118662D01*
X241049Y118354D01*
X240877Y118072D01*
X240673Y117814D01*
X240439Y117582D01*
X240173Y117376D01*
X239877Y117198D01*
X239551Y117046D01*
X239194Y116923D01*
X238806Y116827D01*
X238389Y116758D01*
X237941Y116717D01*
X237462Y116703D01*
G37*
%LPC*%
G36*
X236811Y118041D02*
X236811Y122131D01*
X236521Y122099D01*
X236252Y122054D01*
X236003Y121996D01*
X235775Y121926D01*
X235567Y121844D01*
X235379Y121749D01*
X235211Y121642D01*
X235063Y121522D01*
X234934Y121389D01*
X234823Y121242D01*
X234728Y121081D01*
X234651Y120907D01*
X234591Y120719D01*
X234548Y120517D01*
X234522Y120301D01*
X234513Y120072D01*
X234523Y119848D01*
X234552Y119637D01*
X234600Y119437D01*
X234667Y119250D01*
X234753Y119074D01*
X234858Y118910D01*
X234983Y118759D01*
X235126Y118619D01*
X235287Y118492D01*
X235461Y118382D01*
X235650Y118286D01*
X235854Y118206D01*
X236071Y118142D01*
X236303Y118093D01*
X236550Y118059D01*
X236811Y118041D01*
G37*
%LPD*%
G36*
X237462Y147797D02*
X237006Y147811D01*
X236578Y147852D01*
X236177Y147920D01*
X235804Y148017D01*
X235458Y148140D01*
X235139Y148291D01*
X234847Y148470D01*
X234583Y148676D01*
X234349Y148907D01*
X234145Y149162D01*
X233973Y149441D01*
X233832Y149743D01*
X233723Y150069D01*
X233644Y150418D01*
X233598Y150790D01*
X233582Y151187D01*
X233598Y151591D01*
X233645Y151970D01*
X233723Y152322D01*
X233834Y152648D01*
X233975Y152948D01*
X234148Y153222D01*
X234353Y153470D01*
X234589Y153692D01*
X234856Y153888D01*
X235155Y154058D01*
X235485Y154201D01*
X235847Y154319D01*
X236240Y154410D01*
X236665Y154475D01*
X237121Y154514D01*
X237609Y154527D01*
X237777Y154527D01*
X237777Y149121D01*
X238094Y149129D01*
X238391Y149154D01*
X238670Y149196D01*
X238931Y149255D01*
X239173Y149331D01*
X239396Y149424D01*
X239601Y149533D01*
X239787Y149660D01*
X239953Y149802D01*
X240097Y149961D01*
X240218Y150134D01*
X240318Y150323D01*
X240395Y150528D01*
X240450Y150748D01*
X240484Y150984D01*
X240495Y151236D01*
X240474Y151625D01*
X240412Y151974D01*
X240309Y152282D01*
X240165Y152549D01*
X239990Y152776D01*
X239792Y152963D01*
X239573Y153110D01*
X239332Y153218D01*
X239647Y154324D01*
X239864Y154233D01*
X240067Y154127D01*
X240256Y154009D01*
X240432Y153877D01*
X240593Y153731D01*
X240740Y153572D01*
X240873Y153399D01*
X240992Y153213D01*
X241097Y153013D01*
X241188Y152799D01*
X241265Y152573D01*
X241328Y152332D01*
X241377Y152078D01*
X241412Y151811D01*
X241433Y151530D01*
X241440Y151236D01*
X241424Y150828D01*
X241377Y150445D01*
X241299Y150088D01*
X241190Y149755D01*
X241049Y149448D01*
X240877Y149165D01*
X240673Y148908D01*
X240439Y148676D01*
X240173Y148470D01*
X239877Y148291D01*
X239551Y148140D01*
X239194Y148017D01*
X238806Y147920D01*
X238389Y147852D01*
X237941Y147811D01*
X237462Y147797D01*
G37*
%LPC*%
G36*
X236811Y149135D02*
X236811Y153225D01*
X236521Y153192D01*
X236252Y153147D01*
X236003Y153090D01*
X235775Y153020D01*
X235567Y152937D01*
X235379Y152843D01*
X235211Y152735D01*
X235063Y152615D01*
X234934Y152482D01*
X234823Y152336D01*
X234728Y152175D01*
X234651Y152001D01*
X234591Y151813D01*
X234548Y151611D01*
X234522Y151395D01*
X234513Y151166D01*
X234523Y150942D01*
X234552Y150731D01*
X234600Y150531D01*
X234667Y150344D01*
X234753Y150168D01*
X234858Y150004D01*
X234983Y149852D01*
X235126Y149712D01*
X235287Y149586D01*
X235461Y149475D01*
X235650Y149380D01*
X235854Y149300D01*
X236071Y149236D01*
X236303Y149186D01*
X236550Y149153D01*
X236811Y149135D01*
G37*
%LPD*%
G36*
X237462Y170922D02*
X237006Y170936D01*
X236578Y170977D01*
X236177Y171045D01*
X235804Y171142D01*
X235458Y171265D01*
X235139Y171416D01*
X234847Y171595D01*
X234583Y171801D01*
X234349Y172032D01*
X234145Y172287D01*
X233973Y172566D01*
X233832Y172868D01*
X233723Y173194D01*
X233644Y173543D01*
X233598Y173915D01*
X233582Y174312D01*
X233598Y174716D01*
X233645Y175095D01*
X233723Y175447D01*
X233834Y175773D01*
X233975Y176073D01*
X234148Y176347D01*
X234353Y176595D01*
X234589Y176817D01*
X234856Y177013D01*
X235155Y177183D01*
X235485Y177326D01*
X235847Y177444D01*
X236240Y177535D01*
X236665Y177600D01*
X237121Y177639D01*
X237609Y177652D01*
X237777Y177652D01*
X237777Y172246D01*
X238094Y172254D01*
X238391Y172279D01*
X238670Y172321D01*
X238931Y172380D01*
X239173Y172456D01*
X239396Y172549D01*
X239601Y172658D01*
X239787Y172785D01*
X239953Y172927D01*
X240097Y173086D01*
X240218Y173259D01*
X240318Y173448D01*
X240395Y173653D01*
X240450Y173873D01*
X240484Y174109D01*
X240495Y174361D01*
X240474Y174750D01*
X240412Y175099D01*
X240309Y175407D01*
X240165Y175674D01*
X239990Y175901D01*
X239792Y176088D01*
X239573Y176235D01*
X239332Y176343D01*
X239647Y177449D01*
X239864Y177358D01*
X240067Y177252D01*
X240256Y177134D01*
X240432Y177002D01*
X240593Y176856D01*
X240740Y176697D01*
X240873Y176524D01*
X240992Y176338D01*
X241097Y176138D01*
X241188Y175924D01*
X241265Y175698D01*
X241328Y175457D01*
X241377Y175203D01*
X241412Y174936D01*
X241433Y174655D01*
X241440Y174361D01*
X241424Y173953D01*
X241377Y173570D01*
X241299Y173213D01*
X241190Y172880D01*
X241049Y172573D01*
X240877Y172290D01*
X240673Y172033D01*
X240439Y171801D01*
X240173Y171595D01*
X239877Y171416D01*
X239551Y171265D01*
X239194Y171142D01*
X238806Y171045D01*
X238389Y170977D01*
X237941Y170936D01*
X237462Y170922D01*
G37*
%LPC*%
G36*
X236811Y172260D02*
X236811Y176350D01*
X236521Y176317D01*
X236252Y176272D01*
X236003Y176215D01*
X235775Y176145D01*
X235567Y176062D01*
X235379Y175968D01*
X235211Y175860D01*
X235063Y175740D01*
X234934Y175607D01*
X234823Y175461D01*
X234728Y175300D01*
X234651Y175126D01*
X234591Y174938D01*
X234548Y174736D01*
X234522Y174520D01*
X234513Y174291D01*
X234523Y174067D01*
X234552Y173856D01*
X234600Y173656D01*
X234667Y173469D01*
X234753Y173293D01*
X234858Y173129D01*
X234983Y172977D01*
X235126Y172837D01*
X235287Y172711D01*
X235461Y172600D01*
X235650Y172505D01*
X235854Y172425D01*
X236071Y172361D01*
X236303Y172311D01*
X236550Y172278D01*
X236811Y172260D01*
G37*
%LPD*%
G36*
X241300Y164092D02*
X230906Y164092D01*
X230906Y165352D01*
X237399Y165352D01*
X233722Y168679D01*
X233722Y170157D01*
X236979Y167082D01*
X241300Y170318D01*
X241300Y168840D01*
X237840Y166277D01*
X238604Y165352D01*
X241300Y165352D01*
X241300Y164092D01*
G37*
G36*
X233722Y101890D02*
X233722Y103081D01*
X233911Y103095D01*
X234265Y103112D01*
X235018Y103137D01*
X235018Y103158D01*
X234654Y103383D01*
X234348Y103626D01*
X234099Y103886D01*
X233908Y104163D01*
X233765Y104465D01*
X233663Y104803D01*
X233602Y105175D01*
X233582Y105581D01*
X233592Y105882D01*
X233621Y106163D01*
X233669Y106422D01*
X233737Y106660D01*
X233824Y106878D01*
X233931Y107075D01*
X234056Y107251D01*
X234202Y107405D01*
X234369Y107541D01*
X234562Y107658D01*
X234780Y107758D01*
X235024Y107839D01*
X235292Y107902D01*
X235586Y107947D01*
X235906Y107974D01*
X236250Y107983D01*
X241300Y107983D01*
X241300Y106716D01*
X236495Y106716D01*
X236142Y106706D01*
X235830Y106679D01*
X235560Y106633D01*
X235333Y106569D01*
X235141Y106484D01*
X234977Y106378D01*
X234843Y106249D01*
X234737Y106099D01*
X234658Y105919D01*
X234601Y105702D01*
X234567Y105447D01*
X234555Y105154D01*
X234565Y104932D01*
X234594Y104723D01*
X234643Y104525D01*
X234711Y104340D01*
X234799Y104166D01*
X234906Y104005D01*
X235033Y103855D01*
X235179Y103718D01*
X235342Y103595D01*
X235521Y103488D01*
X235714Y103398D01*
X235923Y103324D01*
X236147Y103267D01*
X236386Y103226D01*
X236640Y103201D01*
X236909Y103193D01*
X241300Y103193D01*
X241300Y101932D01*
X235340Y101932D01*
X234273Y101922D01*
X233933Y101908D01*
X233722Y101890D01*
G37*
G36*
X239521Y132430D02*
X239304Y133544D01*
X239588Y133646D01*
X239832Y133791D01*
X240035Y133979D01*
X240197Y134209D01*
X240321Y134486D01*
X240410Y134812D01*
X240463Y135186D01*
X240481Y135610D01*
X240462Y136058D01*
X240407Y136441D01*
X240315Y136760D01*
X240186Y137014D01*
X240021Y137209D01*
X239924Y137285D01*
X239819Y137348D01*
X239704Y137397D01*
X239580Y137431D01*
X239446Y137452D01*
X239304Y137459D01*
X239090Y137440D01*
X238898Y137382D01*
X238726Y137286D01*
X238576Y137151D01*
X238442Y136973D01*
X238320Y136748D01*
X238210Y136476D01*
X238113Y136156D01*
X237875Y135253D01*
X237736Y134749D01*
X237598Y134324D01*
X237461Y133977D01*
X237325Y133709D01*
X237183Y133492D01*
X237027Y133300D01*
X236856Y133133D01*
X236671Y132991D01*
X236467Y132877D01*
X236242Y132796D01*
X235994Y132748D01*
X235725Y132732D01*
X235474Y132743D01*
X235238Y132778D01*
X235017Y132836D01*
X234812Y132916D01*
X234622Y133020D01*
X234448Y133147D01*
X234289Y133297D01*
X234146Y133471D01*
X234018Y133666D01*
X233908Y133882D01*
X233815Y134120D01*
X233739Y134378D01*
X233679Y134658D01*
X233637Y134959D01*
X233611Y135281D01*
X233603Y135624D01*
X233610Y135930D01*
X233630Y136219D01*
X233665Y136492D01*
X233713Y136749D01*
X233775Y136990D01*
X233851Y137215D01*
X233941Y137424D01*
X234044Y137617D01*
X234163Y137793D01*
X234298Y137952D01*
X234450Y138095D01*
X234618Y138220D01*
X234804Y138328D01*
X235005Y138420D01*
X235224Y138494D01*
X235459Y138552D01*
X235599Y137417D01*
X235361Y137343D01*
X235153Y137224D01*
X234975Y137061D01*
X234825Y136853D01*
X234707Y136605D01*
X234623Y136317D01*
X234572Y135990D01*
X234555Y135624D01*
X234572Y135225D01*
X234620Y134882D01*
X234701Y134595D01*
X234815Y134364D01*
X234961Y134186D01*
X235140Y134059D01*
X235353Y133983D01*
X235472Y133964D01*
X235599Y133957D01*
X235753Y133968D01*
X235893Y133999D01*
X236019Y134052D01*
X236131Y134125D01*
X236232Y134219D01*
X236326Y134334D01*
X236411Y134468D01*
X236488Y134623D01*
X236569Y134833D01*
X236664Y135134D01*
X236895Y136009D01*
X237137Y136871D01*
X237251Y137197D01*
X237360Y137452D01*
X237470Y137661D01*
X237585Y137847D01*
X237706Y138010D01*
X237833Y138149D01*
X237968Y138270D01*
X238112Y138376D01*
X238267Y138468D01*
X238432Y138545D01*
X238608Y138606D01*
X238795Y138650D01*
X238995Y138676D01*
X239206Y138685D01*
X239466Y138672D01*
X239711Y138634D01*
X239941Y138571D01*
X240155Y138483D01*
X240354Y138369D01*
X240537Y138230D01*
X240706Y138066D01*
X240859Y137876D01*
X240995Y137664D01*
X241113Y137431D01*
X241213Y137178D01*
X241295Y136905D01*
X241358Y136612D01*
X241404Y136298D01*
X241431Y135964D01*
X241440Y135610D01*
X241433Y135267D01*
X241411Y134943D01*
X241375Y134640D01*
X241324Y134357D01*
X241258Y134095D01*
X241178Y133852D01*
X241084Y133630D01*
X240974Y133429D01*
X240850Y133245D01*
X240709Y133079D01*
X240552Y132929D01*
X240378Y132796D01*
X240188Y132679D01*
X239982Y132580D01*
X239760Y132497D01*
X239521Y132430D01*
G37*
G36*
X237504Y68859D02*
X237040Y68872D01*
X236605Y68912D01*
X236198Y68978D01*
X235819Y69069D01*
X235468Y69188D01*
X235146Y69332D01*
X234852Y69503D01*
X234587Y69700D01*
X234351Y69921D01*
X234147Y70166D01*
X233974Y70433D01*
X233833Y70722D01*
X233723Y71035D01*
X233645Y71370D01*
X233598Y71728D01*
X233582Y72109D01*
X233591Y72394D01*
X233620Y72666D01*
X233667Y72925D01*
X233732Y73173D01*
X233817Y73408D01*
X233921Y73630D01*
X234043Y73841D01*
X234184Y74039D01*
X234342Y74221D01*
X234514Y74386D01*
X234700Y74534D01*
X234900Y74663D01*
X235115Y74774D01*
X235344Y74868D01*
X235587Y74944D01*
X235844Y75002D01*
X235942Y73706D01*
X235643Y73638D01*
X235377Y73533D01*
X235142Y73389D01*
X234941Y73209D01*
X234778Y72988D01*
X234662Y72725D01*
X234593Y72421D01*
X234569Y72074D01*
X234580Y71832D01*
X234611Y71608D01*
X234663Y71401D01*
X234736Y71211D01*
X234829Y71038D01*
X234944Y70883D01*
X235079Y70745D01*
X235235Y70624D01*
X235415Y70519D01*
X235624Y70428D01*
X235862Y70351D01*
X236128Y70288D01*
X236422Y70239D01*
X236745Y70204D01*
X237096Y70183D01*
X237476Y70176D01*
X237842Y70183D01*
X238183Y70206D01*
X238500Y70243D01*
X238793Y70295D01*
X239061Y70362D01*
X239304Y70444D01*
X239523Y70541D01*
X239717Y70652D01*
X239888Y70779D01*
X240036Y70921D01*
X240161Y71077D01*
X240263Y71249D01*
X240343Y71436D01*
X240400Y71639D01*
X240434Y71856D01*
X240446Y72088D01*
X240423Y72410D01*
X240355Y72705D01*
X240241Y72973D01*
X240081Y73212D01*
X239875Y73416D01*
X239619Y73577D01*
X239314Y73695D01*
X238961Y73769D01*
X239045Y75044D01*
X239311Y74997D01*
X239564Y74930D01*
X239802Y74844D01*
X240027Y74737D01*
X240238Y74611D01*
X240436Y74465D01*
X240619Y74298D01*
X240789Y74112D01*
X240941Y73909D01*
X241074Y73694D01*
X241186Y73465D01*
X241277Y73223D01*
X241348Y72967D01*
X241399Y72699D01*
X241430Y72418D01*
X241440Y72123D01*
X241424Y71737D01*
X241377Y71375D01*
X241299Y71037D01*
X241189Y70721D01*
X241048Y70430D01*
X240875Y70162D01*
X240671Y69917D01*
X240435Y69696D01*
X240169Y69500D01*
X239875Y69330D01*
X239552Y69186D01*
X239200Y69069D01*
X238819Y68977D01*
X238409Y68912D01*
X237971Y68872D01*
X237504Y68859D01*
G37*
G36*
X237504Y186859D02*
X237040Y186872D01*
X236605Y186912D01*
X236198Y186978D01*
X235819Y187069D01*
X235468Y187188D01*
X235146Y187332D01*
X234852Y187503D01*
X234587Y187700D01*
X234351Y187921D01*
X234147Y188166D01*
X233974Y188433D01*
X233833Y188722D01*
X233723Y189035D01*
X233645Y189370D01*
X233598Y189728D01*
X233582Y190109D01*
X233591Y190394D01*
X233620Y190666D01*
X233667Y190925D01*
X233732Y191173D01*
X233817Y191408D01*
X233921Y191630D01*
X234043Y191841D01*
X234184Y192039D01*
X234342Y192221D01*
X234514Y192386D01*
X234700Y192534D01*
X234900Y192663D01*
X235115Y192774D01*
X235344Y192868D01*
X235587Y192944D01*
X235844Y193002D01*
X235942Y191706D01*
X235643Y191638D01*
X235377Y191533D01*
X235142Y191389D01*
X234941Y191209D01*
X234778Y190988D01*
X234662Y190725D01*
X234593Y190421D01*
X234569Y190074D01*
X234580Y189832D01*
X234611Y189608D01*
X234663Y189401D01*
X234736Y189211D01*
X234829Y189038D01*
X234944Y188883D01*
X235079Y188745D01*
X235235Y188624D01*
X235415Y188519D01*
X235624Y188428D01*
X235862Y188351D01*
X236128Y188288D01*
X236422Y188239D01*
X236745Y188204D01*
X237096Y188183D01*
X237476Y188176D01*
X237842Y188183D01*
X238183Y188206D01*
X238500Y188243D01*
X238793Y188295D01*
X239061Y188362D01*
X239304Y188444D01*
X239523Y188541D01*
X239717Y188652D01*
X239888Y188779D01*
X240036Y188921D01*
X240161Y189077D01*
X240263Y189249D01*
X240343Y189436D01*
X240400Y189639D01*
X240434Y189856D01*
X240446Y190088D01*
X240423Y190410D01*
X240355Y190705D01*
X240241Y190973D01*
X240081Y191212D01*
X239875Y191416D01*
X239619Y191577D01*
X239314Y191695D01*
X238961Y191769D01*
X239045Y193044D01*
X239311Y192997D01*
X239564Y192930D01*
X239802Y192844D01*
X240027Y192737D01*
X240238Y192611D01*
X240436Y192465D01*
X240619Y192298D01*
X240789Y192112D01*
X240941Y191909D01*
X241074Y191694D01*
X241186Y191465D01*
X241277Y191223D01*
X241348Y190967D01*
X241399Y190699D01*
X241430Y190418D01*
X241440Y190123D01*
X241424Y189737D01*
X241377Y189375D01*
X241299Y189037D01*
X241189Y188721D01*
X241048Y188430D01*
X240875Y188162D01*
X240671Y187917D01*
X240435Y187696D01*
X240169Y187500D01*
X239875Y187330D01*
X239552Y187186D01*
X239200Y187069D01*
X238819Y186977D01*
X238409Y186912D01*
X237971Y186872D01*
X237504Y186859D01*
G37*
G36*
X244270Y75522D02*
X243899Y75840D01*
X243524Y76136D01*
X243144Y76410D01*
X242759Y76661D01*
X242370Y76891D01*
X241975Y77099D01*
X241575Y77284D01*
X241170Y77448D01*
X240758Y77590D01*
X240336Y77714D01*
X239903Y77819D01*
X239461Y77905D01*
X239008Y77971D01*
X238545Y78019D01*
X238071Y78047D01*
X237588Y78057D01*
X237105Y78047D01*
X236631Y78019D01*
X236168Y77971D01*
X235715Y77904D01*
X235271Y77818D01*
X234838Y77712D01*
X234415Y77588D01*
X234002Y77444D01*
X233597Y77280D01*
X233197Y77094D01*
X232802Y76886D01*
X232412Y76657D01*
X232028Y76406D01*
X231649Y76133D01*
X231275Y75838D01*
X230906Y75522D01*
X230906Y76740D01*
X231267Y77060D01*
X231632Y77359D01*
X232004Y77635D01*
X232382Y77891D01*
X232765Y78124D01*
X233154Y78336D01*
X233549Y78526D01*
X233950Y78694D01*
X234359Y78842D01*
X234781Y78970D01*
X235216Y79078D01*
X235663Y79167D01*
X236122Y79236D01*
X236594Y79285D01*
X237078Y79315D01*
X237574Y79325D01*
X237602Y79325D01*
X238102Y79315D01*
X238588Y79285D01*
X239062Y79235D01*
X239523Y79166D01*
X239971Y79077D01*
X240406Y78968D01*
X240828Y78839D01*
X241237Y78691D01*
X241637Y78522D01*
X242031Y78331D01*
X242419Y78119D01*
X242801Y77886D01*
X243177Y77632D01*
X243547Y77356D01*
X243911Y77059D01*
X244270Y76740D01*
X244270Y75522D01*
G37*
G36*
X237602Y64389D02*
X237574Y64389D01*
X237074Y64399D01*
X236588Y64429D01*
X236114Y64479D01*
X235653Y64548D01*
X235205Y64637D01*
X234770Y64746D01*
X234348Y64875D01*
X233939Y65023D01*
X233539Y65192D01*
X233145Y65383D01*
X232757Y65595D01*
X232375Y65828D01*
X231999Y66082D01*
X231629Y66358D01*
X231265Y66655D01*
X230906Y66974D01*
X230906Y68193D01*
X231273Y67876D01*
X231646Y67581D01*
X232025Y67308D01*
X232409Y67057D01*
X232799Y66828D01*
X233194Y66620D01*
X233595Y66434D01*
X234002Y66270D01*
X234417Y66126D01*
X234841Y66002D01*
X235275Y65897D01*
X235718Y65810D01*
X236171Y65743D01*
X236634Y65695D01*
X237106Y65667D01*
X237588Y65657D01*
X238068Y65667D01*
X238539Y65695D01*
X239000Y65742D01*
X239451Y65809D01*
X239893Y65894D01*
X240325Y65998D01*
X240747Y66121D01*
X241160Y66263D01*
X241565Y66426D01*
X241966Y66611D01*
X242362Y66818D01*
X242753Y67048D01*
X243140Y67301D01*
X243521Y67576D01*
X243898Y67873D01*
X244270Y68193D01*
X244270Y66974D01*
X243910Y66654D01*
X243544Y66355D01*
X243172Y66079D01*
X242794Y65824D01*
X242411Y65590D01*
X242022Y65378D01*
X241627Y65188D01*
X241226Y65020D01*
X240817Y64872D01*
X240395Y64744D01*
X239960Y64636D01*
X239513Y64547D01*
X239054Y64478D01*
X238582Y64429D01*
X238098Y64399D01*
X237602Y64389D01*
G37*
G36*
X234639Y84391D02*
X233722Y84391D01*
X233722Y85455D01*
X232867Y85455D01*
X232617Y85462D01*
X232386Y85484D01*
X232172Y85519D01*
X231976Y85569D01*
X231799Y85633D01*
X231640Y85711D01*
X231499Y85804D01*
X231376Y85910D01*
X231269Y86032D01*
X231176Y86168D01*
X231098Y86320D01*
X231034Y86486D01*
X230984Y86668D01*
X230949Y86865D01*
X230928Y87077D01*
X230920Y87304D01*
X230941Y87789D01*
X230968Y88001D01*
X231004Y88194D01*
X231964Y88194D01*
X231922Y87896D01*
X231908Y87633D01*
X231923Y87408D01*
X231969Y87217D01*
X232046Y87058D01*
X232153Y86933D01*
X232301Y86838D01*
X232498Y86770D01*
X232745Y86729D01*
X233043Y86716D01*
X233722Y86716D01*
X233722Y88194D01*
X234639Y88194D01*
X234639Y86716D01*
X241300Y86716D01*
X241300Y85455D01*
X234639Y85455D01*
X234639Y84391D01*
G37*
G36*
X234639Y124266D02*
X233722Y124266D01*
X233722Y125330D01*
X232867Y125330D01*
X232617Y125337D01*
X232386Y125359D01*
X232172Y125394D01*
X231976Y125444D01*
X231799Y125508D01*
X231640Y125586D01*
X231499Y125679D01*
X231376Y125785D01*
X231269Y125907D01*
X231176Y126043D01*
X231098Y126195D01*
X231034Y126361D01*
X230984Y126543D01*
X230949Y126740D01*
X230928Y126952D01*
X230920Y127179D01*
X230941Y127664D01*
X230968Y127876D01*
X231004Y128069D01*
X231964Y128069D01*
X231922Y127771D01*
X231908Y127508D01*
X231923Y127283D01*
X231969Y127092D01*
X232046Y126933D01*
X232153Y126808D01*
X232301Y126713D01*
X232498Y126645D01*
X232745Y126604D01*
X233043Y126591D01*
X233722Y126591D01*
X233722Y128069D01*
X234639Y128069D01*
X234639Y126591D01*
X241300Y126591D01*
X241300Y125330D01*
X234639Y125330D01*
X234639Y124266D01*
G37*
G36*
X234639Y109123D02*
X233722Y109123D01*
X233722Y110048D01*
X232027Y110419D01*
X232027Y111260D01*
X233722Y111260D01*
X233722Y112660D01*
X234639Y112660D01*
X234639Y111260D01*
X239423Y111260D01*
X239676Y111271D01*
X239888Y111304D01*
X240059Y111360D01*
X240190Y111438D01*
X240286Y111544D01*
X240355Y111682D01*
X240397Y111854D01*
X240411Y112058D01*
X240386Y112366D01*
X240312Y112786D01*
X241244Y112786D01*
X241318Y112473D01*
X241370Y112156D01*
X241402Y111836D01*
X241412Y111512D01*
X241405Y111328D01*
X241385Y111157D01*
X241352Y110998D01*
X241305Y110850D01*
X241245Y110714D01*
X241171Y110590D01*
X241084Y110478D01*
X240983Y110377D01*
X240869Y110288D01*
X240742Y110212D01*
X240601Y110147D01*
X240447Y110093D01*
X240279Y110052D01*
X240098Y110022D01*
X239904Y110005D01*
X239696Y109999D01*
X234639Y109999D01*
X234639Y109123D01*
G37*
G36*
X234639Y128248D02*
X233722Y128248D01*
X233722Y129173D01*
X232027Y129544D01*
X232027Y130385D01*
X233722Y130385D01*
X233722Y131785D01*
X234639Y131785D01*
X234639Y130385D01*
X239423Y130385D01*
X239676Y130396D01*
X239888Y130429D01*
X240059Y130485D01*
X240190Y130563D01*
X240286Y130669D01*
X240355Y130807D01*
X240397Y130979D01*
X240411Y131183D01*
X240386Y131491D01*
X240312Y131911D01*
X241244Y131911D01*
X241318Y131598D01*
X241370Y131281D01*
X241402Y130961D01*
X241412Y130637D01*
X241405Y130453D01*
X241385Y130282D01*
X241352Y130123D01*
X241305Y129975D01*
X241245Y129839D01*
X241171Y129715D01*
X241084Y129603D01*
X240983Y129502D01*
X240869Y129413D01*
X240742Y129337D01*
X240601Y129272D01*
X240447Y129218D01*
X240279Y129177D01*
X240098Y129147D01*
X239904Y129130D01*
X239696Y129124D01*
X234639Y129124D01*
X234639Y128248D01*
G37*
G36*
X241300Y113873D02*
X230906Y113873D01*
X230906Y115133D01*
X241300Y115133D01*
X241300Y113873D01*
G37*
G36*
X233722Y89140D02*
X233722Y90331D01*
X235270Y90387D01*
X235270Y90415D01*
X234822Y90571D01*
X234450Y90739D01*
X234156Y90918D01*
X233939Y91108D01*
X233783Y91324D01*
X233671Y91581D01*
X233604Y91878D01*
X233582Y92215D01*
X233599Y92469D01*
X233652Y92726D01*
X234808Y92726D01*
X234755Y92432D01*
X234737Y92054D01*
X234748Y91863D01*
X234780Y91685D01*
X234833Y91517D01*
X234906Y91362D01*
X235001Y91218D01*
X235118Y91086D01*
X235255Y90965D01*
X235413Y90856D01*
X235591Y90759D01*
X235788Y90675D01*
X236002Y90604D01*
X236235Y90546D01*
X236487Y90501D01*
X236756Y90469D01*
X237044Y90449D01*
X237350Y90443D01*
X241300Y90443D01*
X241300Y89182D01*
X235487Y89182D01*
X234646Y89172D01*
X233722Y89140D01*
G37*
G36*
X233722Y179234D02*
X233722Y180424D01*
X235270Y180480D01*
X235270Y180508D01*
X234822Y180665D01*
X234450Y180832D01*
X234156Y181011D01*
X233939Y181202D01*
X233783Y181418D01*
X233671Y181675D01*
X233604Y181971D01*
X233582Y182308D01*
X233599Y182562D01*
X233652Y182820D01*
X234808Y182820D01*
X234755Y182526D01*
X234737Y182147D01*
X234748Y181957D01*
X234780Y181778D01*
X234833Y181611D01*
X234906Y181456D01*
X235001Y181312D01*
X235118Y181180D01*
X235255Y181059D01*
X235413Y180950D01*
X235591Y180853D01*
X235788Y180769D01*
X236002Y180698D01*
X236235Y180640D01*
X236487Y180595D01*
X236756Y180562D01*
X237044Y180543D01*
X237350Y180536D01*
X241300Y180536D01*
X241300Y179276D01*
X235487Y179276D01*
X234646Y179265D01*
X233722Y179234D01*
G37*
G36*
X241300Y183560D02*
X239766Y183560D01*
X239766Y184925D01*
X241300Y184925D01*
X241300Y183560D01*
G37*
G36*
X-17436Y90639D02*
X-22281Y90639D01*
X-22281Y91671D01*
X-17522Y91671D01*
X-17269Y91679D01*
X-17032Y91704D01*
X-16811Y91746D01*
X-16605Y91804D01*
X-16415Y91878D01*
X-16241Y91969D01*
X-16082Y92076D01*
X-15939Y92201D01*
X-15813Y92340D01*
X-15703Y92495D01*
X-15610Y92664D01*
X-15534Y92847D01*
X-15475Y93046D01*
X-15433Y93259D01*
X-15408Y93487D01*
X-15399Y93729D01*
X-15408Y93979D01*
X-15434Y94214D01*
X-15478Y94435D01*
X-15539Y94641D01*
X-15618Y94834D01*
X-15714Y95012D01*
X-15827Y95176D01*
X-15958Y95325D01*
X-16106Y95459D01*
X-16270Y95575D01*
X-16450Y95673D01*
X-16646Y95753D01*
X-16859Y95815D01*
X-17087Y95860D01*
X-17332Y95886D01*
X-17592Y95895D01*
X-22281Y95895D01*
X-22281Y96922D01*
X-17533Y96922D01*
X-17306Y96915D01*
X-17087Y96897D01*
X-16673Y96824D01*
X-16290Y96701D01*
X-15939Y96530D01*
X-15624Y96314D01*
X-15349Y96057D01*
X-15112Y95760D01*
X-14916Y95423D01*
X-14761Y95049D01*
X-14650Y94643D01*
X-14584Y94205D01*
X-14562Y93735D01*
X-14583Y93282D01*
X-14647Y92860D01*
X-14753Y92467D01*
X-14902Y92103D01*
X-15092Y91774D01*
X-15320Y91485D01*
X-15586Y91234D01*
X-15891Y91023D01*
X-16230Y90855D01*
X-16601Y90735D01*
X-17003Y90663D01*
X-17215Y90645D01*
X-17436Y90639D01*
G37*
G36*
X-14670Y98597D02*
X-15496Y98597D01*
X-15496Y100537D01*
X-21352Y100537D01*
X-20126Y98819D01*
X-21044Y98819D01*
X-22281Y100618D01*
X-22281Y101514D01*
X-15496Y101514D01*
X-15496Y103367D01*
X-14670Y103367D01*
X-14670Y98597D01*
G37*
D10*
X198375Y80920D02*
X26925Y80920D01*
X217425Y99970D02*
X217425Y239670D01*
D11*
X7875Y124870D02*
X-2228Y124907D01*
X-7225Y129907D02*
X-7225Y209860D01*
X-2225Y214860D02*
X7875Y214860D01*
D10*
X7875Y239670D02*
X7875Y99970D01*
X26925Y258720D02*
X198375Y258720D01*
X26885Y80920D02*
X26417Y80926D01*
X25950Y80943D01*
X25484Y80972D01*
X25018Y81012D01*
X24553Y81063D01*
X24090Y81126D01*
X23628Y81200D01*
X23169Y81286D01*
X22711Y81383D01*
X22256Y81491D01*
X21804Y81610D01*
X21355Y81740D01*
X20909Y81881D01*
X20467Y82034D01*
X20029Y82196D01*
X19595Y82370D01*
X19165Y82554D01*
X18740Y82749D01*
X18320Y82954D01*
X17905Y83169D01*
X17495Y83395D01*
X17091Y83630D01*
X16693Y83876D01*
X16301Y84131D01*
X15916Y84395D01*
X15537Y84669D01*
X15165Y84952D01*
X14800Y85244D01*
X14442Y85545D01*
X14092Y85855D01*
X13749Y86173D01*
X13415Y86500D01*
X13088Y86834D01*
X12770Y87177D01*
X12460Y87527D01*
X12159Y87885D01*
X11867Y88250D01*
X11584Y88622D01*
X11310Y89001D01*
X11046Y89386D01*
X10791Y89778D01*
X10545Y90176D01*
X10310Y90580D01*
X10084Y90990D01*
X9869Y91405D01*
X9664Y91825D01*
X9469Y92250D01*
X9285Y92680D01*
X9111Y93114D01*
X8949Y93552D01*
X8796Y93994D01*
X8655Y94440D01*
X8525Y94889D01*
X8406Y95341D01*
X8298Y95796D01*
X8201Y96254D01*
X8115Y96713D01*
X8041Y97175D01*
X7978Y97638D01*
X7927Y98103D01*
X7887Y98569D01*
X7858Y99035D01*
X7841Y99502D01*
X7835Y99970D01*
X198375Y80920D02*
X198843Y80926D01*
X199310Y80943D01*
X199776Y80972D01*
X200242Y81012D01*
X200707Y81063D01*
X201170Y81126D01*
X201632Y81200D01*
X202091Y81286D01*
X202549Y81383D01*
X203004Y81491D01*
X203456Y81610D01*
X203905Y81740D01*
X204351Y81881D01*
X204793Y82034D01*
X205231Y82196D01*
X205665Y82370D01*
X206095Y82554D01*
X206520Y82749D01*
X206940Y82954D01*
X207355Y83169D01*
X207765Y83395D01*
X208169Y83630D01*
X208567Y83876D01*
X208959Y84131D01*
X209344Y84395D01*
X209723Y84669D01*
X210095Y84952D01*
X210460Y85244D01*
X210818Y85545D01*
X211168Y85855D01*
X211511Y86173D01*
X211845Y86500D01*
X212172Y86834D01*
X212490Y87177D01*
X212800Y87527D01*
X213101Y87885D01*
X213393Y88250D01*
X213676Y88622D01*
X213950Y89001D01*
X214214Y89386D01*
X214469Y89778D01*
X214715Y90176D01*
X214950Y90580D01*
X215176Y90990D01*
X215391Y91405D01*
X215596Y91825D01*
X215791Y92250D01*
X215975Y92680D01*
X216149Y93114D01*
X216311Y93552D01*
X216464Y93994D01*
X216605Y94440D01*
X216735Y94889D01*
X216854Y95341D01*
X216962Y95796D01*
X217059Y96254D01*
X217145Y96713D01*
X217219Y97175D01*
X217282Y97638D01*
X217333Y98103D01*
X217373Y98569D01*
X217402Y99035D01*
X217419Y99502D01*
X217425Y99970D01*
D11*
X-2228Y124907D02*
X-2368Y124909D01*
X-2508Y124915D01*
X-2648Y124925D01*
X-2787Y124939D01*
X-2927Y124956D01*
X-3065Y124978D01*
X-3203Y125004D01*
X-3340Y125033D01*
X-3476Y125066D01*
X-3611Y125103D01*
X-3746Y125144D01*
X-3879Y125188D01*
X-4010Y125237D01*
X-4140Y125288D01*
X-4269Y125344D01*
X-4396Y125403D01*
X-4522Y125466D01*
X-4645Y125532D01*
X-4767Y125601D01*
X-4887Y125674D01*
X-5004Y125751D01*
X-5120Y125830D01*
X-5233Y125913D01*
X-5344Y125999D01*
X-5452Y126088D01*
X-5558Y126180D01*
X-5661Y126275D01*
X-5761Y126372D01*
X-5859Y126473D01*
X-5954Y126576D01*
X-6046Y126682D01*
X-6135Y126790D01*
X-6221Y126901D01*
X-6303Y127014D01*
X-6383Y127130D01*
X-6459Y127248D01*
X-6532Y127367D01*
X-6602Y127489D01*
X-6668Y127613D01*
X-6730Y127738D01*
X-6789Y127865D01*
X-6845Y127994D01*
X-6896Y128124D01*
X-6945Y128256D01*
X-6989Y128389D01*
X-7030Y128523D01*
X-7067Y128658D01*
X-7100Y128795D01*
X-7129Y128932D01*
X-7154Y129070D01*
X-7176Y129208D01*
X-7194Y129347D01*
X-7207Y129487D01*
X-7217Y129627D01*
X-7223Y129767D01*
X-7225Y129907D01*
X-7225Y209860D02*
X-7223Y210000D01*
X-7217Y210140D01*
X-7207Y210280D01*
X-7194Y210420D01*
X-7176Y210559D01*
X-7154Y210698D01*
X-7129Y210835D01*
X-7100Y210973D01*
X-7067Y211109D01*
X-7030Y211244D01*
X-6989Y211378D01*
X-6944Y211511D01*
X-6896Y211643D01*
X-6844Y211773D01*
X-6789Y211902D01*
X-6730Y212029D01*
X-6667Y212155D01*
X-6601Y212279D01*
X-6532Y212400D01*
X-6459Y212520D01*
X-6382Y212638D01*
X-6303Y212753D01*
X-6220Y212867D01*
X-6134Y212977D01*
X-6045Y213086D01*
X-5953Y213192D01*
X-5858Y213295D01*
X-5761Y213396D01*
X-5660Y213493D01*
X-5557Y213588D01*
X-5451Y213680D01*
X-5342Y213769D01*
X-5232Y213855D01*
X-5118Y213938D01*
X-5003Y214017D01*
X-4885Y214094D01*
X-4765Y214167D01*
X-4644Y214236D01*
X-4520Y214302D01*
X-4394Y214365D01*
X-4267Y214424D01*
X-4138Y214479D01*
X-4008Y214531D01*
X-3876Y214579D01*
X-3743Y214624D01*
X-3609Y214665D01*
X-3474Y214702D01*
X-3338Y214735D01*
X-3200Y214764D01*
X-3063Y214789D01*
X-2924Y214811D01*
X-2785Y214829D01*
X-2645Y214842D01*
X-2505Y214852D01*
X-2365Y214858D01*
X-2225Y214860D01*
D10*
X7875Y239670D02*
X7881Y240138D01*
X7898Y240605D01*
X7927Y241071D01*
X7967Y241537D01*
X8018Y242002D01*
X8081Y242465D01*
X8155Y242927D01*
X8241Y243386D01*
X8338Y243844D01*
X8446Y244299D01*
X8565Y244751D01*
X8695Y245200D01*
X8836Y245646D01*
X8989Y246088D01*
X9151Y246526D01*
X9325Y246960D01*
X9509Y247390D01*
X9704Y247815D01*
X9909Y248235D01*
X10124Y248650D01*
X10350Y249060D01*
X10585Y249464D01*
X10831Y249862D01*
X11086Y250254D01*
X11350Y250639D01*
X11624Y251018D01*
X11907Y251390D01*
X12199Y251755D01*
X12500Y252113D01*
X12810Y252463D01*
X13128Y252806D01*
X13455Y253140D01*
X13789Y253467D01*
X14132Y253785D01*
X14482Y254095D01*
X14840Y254396D01*
X15205Y254688D01*
X15577Y254971D01*
X15956Y255245D01*
X16341Y255509D01*
X16733Y255764D01*
X17131Y256010D01*
X17535Y256245D01*
X17945Y256471D01*
X18360Y256686D01*
X18780Y256891D01*
X19205Y257086D01*
X19635Y257270D01*
X20069Y257444D01*
X20507Y257606D01*
X20949Y257759D01*
X21395Y257900D01*
X21844Y258030D01*
X22296Y258149D01*
X22751Y258257D01*
X23209Y258354D01*
X23668Y258440D01*
X24130Y258514D01*
X24593Y258577D01*
X25058Y258628D01*
X25524Y258668D01*
X25990Y258697D01*
X26457Y258714D01*
X26925Y258720D01*
X198375Y258720D02*
X198843Y258714D01*
X199310Y258697D01*
X199776Y258668D01*
X200242Y258628D01*
X200707Y258577D01*
X201170Y258514D01*
X201632Y258440D01*
X202091Y258354D01*
X202549Y258257D01*
X203004Y258149D01*
X203456Y258030D01*
X203905Y257900D01*
X204351Y257759D01*
X204793Y257606D01*
X205231Y257444D01*
X205665Y257270D01*
X206095Y257086D01*
X206520Y256891D01*
X206940Y256686D01*
X207355Y256471D01*
X207765Y256245D01*
X208169Y256010D01*
X208567Y255764D01*
X208959Y255509D01*
X209344Y255245D01*
X209723Y254971D01*
X210095Y254688D01*
X210460Y254396D01*
X210818Y254095D01*
X211168Y253785D01*
X211511Y253467D01*
X211845Y253140D01*
X212172Y252806D01*
X212490Y252463D01*
X212800Y252113D01*
X213101Y251755D01*
X213393Y251390D01*
X213676Y251018D01*
X213950Y250639D01*
X214214Y250254D01*
X214469Y249862D01*
X214715Y249464D01*
X214950Y249060D01*
X215176Y248650D01*
X215391Y248235D01*
X215596Y247815D01*
X215791Y247390D01*
X215975Y246960D01*
X216149Y246526D01*
X216311Y246088D01*
X216464Y245646D01*
X216605Y245200D01*
X216735Y244751D01*
X216854Y244299D01*
X216962Y243844D01*
X217059Y243386D01*
X217145Y242927D01*
X217219Y242465D01*
X217282Y242002D01*
X217333Y241537D01*
X217373Y241071D01*
X217402Y240605D01*
X217419Y240138D01*
X217425Y239670D01*
D12*
X9495Y78820D02*
X9497Y78920D01*
X9503Y79021D01*
X9513Y79120D01*
X9527Y79220D01*
X9544Y79319D01*
X9566Y79417D01*
X9592Y79514D01*
X9621Y79610D01*
X9654Y79704D01*
X9691Y79798D01*
X9731Y79890D01*
X9775Y79980D01*
X9823Y80068D01*
X9874Y80155D01*
X9928Y80239D01*
X9986Y80321D01*
X10047Y80401D01*
X10111Y80478D01*
X10178Y80553D01*
X10248Y80625D01*
X10321Y80694D01*
X10396Y80760D01*
X10474Y80824D01*
X10554Y80884D01*
X10637Y80941D01*
X10722Y80994D01*
X10809Y81044D01*
X10898Y81091D01*
X10988Y81134D01*
X11080Y81174D01*
X11174Y81210D01*
X11269Y81242D01*
X11365Y81270D01*
X11463Y81295D01*
X11561Y81315D01*
X11660Y81332D01*
X11760Y81345D01*
X11859Y81354D01*
X11960Y81359D01*
X12060Y81360D01*
X12160Y81357D01*
X12261Y81350D01*
X12360Y81339D01*
X12460Y81324D01*
X12558Y81306D01*
X12656Y81283D01*
X12753Y81256D01*
X12848Y81226D01*
X12943Y81192D01*
X13036Y81154D01*
X13127Y81113D01*
X13217Y81068D01*
X13305Y81020D01*
X13391Y80968D01*
X13475Y80913D01*
X13556Y80854D01*
X13635Y80792D01*
X13712Y80728D01*
X13786Y80660D01*
X13857Y80589D01*
X13926Y80516D01*
X13991Y80440D01*
X14054Y80361D01*
X14113Y80280D01*
X14169Y80197D01*
X14222Y80112D01*
X14271Y80024D01*
X14317Y79935D01*
X14359Y79844D01*
X14398Y79751D01*
X14433Y79657D01*
X14464Y79562D01*
X14492Y79465D01*
X14515Y79368D01*
X14535Y79269D01*
X14551Y79170D01*
X14563Y79071D01*
X14571Y78970D01*
X14575Y78870D01*
X14575Y78770D01*
X14571Y78670D01*
X14563Y78569D01*
X14551Y78470D01*
X14535Y78371D01*
X14515Y78272D01*
X14492Y78175D01*
X14464Y78078D01*
X14433Y77983D01*
X14398Y77889D01*
X14359Y77796D01*
X14317Y77705D01*
X14271Y77616D01*
X14222Y77528D01*
X14169Y77443D01*
X14113Y77360D01*
X14054Y77279D01*
X13991Y77200D01*
X13926Y77124D01*
X13857Y77051D01*
X13786Y76980D01*
X13712Y76912D01*
X13635Y76848D01*
X13556Y76786D01*
X13475Y76727D01*
X13391Y76672D01*
X13305Y76620D01*
X13217Y76572D01*
X13127Y76527D01*
X13036Y76486D01*
X12943Y76448D01*
X12848Y76414D01*
X12753Y76384D01*
X12656Y76357D01*
X12558Y76334D01*
X12460Y76316D01*
X12360Y76301D01*
X12261Y76290D01*
X12160Y76283D01*
X12060Y76280D01*
X11960Y76281D01*
X11859Y76286D01*
X11760Y76295D01*
X11660Y76308D01*
X11561Y76325D01*
X11463Y76345D01*
X11365Y76370D01*
X11269Y76398D01*
X11174Y76430D01*
X11080Y76466D01*
X10988Y76506D01*
X10898Y76549D01*
X10809Y76596D01*
X10722Y76646D01*
X10637Y76699D01*
X10554Y76756D01*
X10474Y76816D01*
X10396Y76880D01*
X10321Y76946D01*
X10248Y77015D01*
X10178Y77087D01*
X10111Y77162D01*
X10047Y77239D01*
X9986Y77319D01*
X9928Y77401D01*
X9874Y77485D01*
X9823Y77572D01*
X9775Y77660D01*
X9731Y77750D01*
X9691Y77842D01*
X9654Y77936D01*
X9621Y78030D01*
X9592Y78126D01*
X9566Y78223D01*
X9544Y78321D01*
X9527Y78420D01*
X9513Y78520D01*
X9503Y78619D01*
X9497Y78720D01*
X9495Y78820D01*
X16665Y91560D02*
X16667Y91660D01*
X16673Y91761D01*
X16683Y91860D01*
X16697Y91960D01*
X16714Y92059D01*
X16736Y92157D01*
X16762Y92254D01*
X16791Y92350D01*
X16824Y92444D01*
X16861Y92538D01*
X16901Y92630D01*
X16945Y92720D01*
X16993Y92808D01*
X17044Y92895D01*
X17098Y92979D01*
X17156Y93061D01*
X17217Y93141D01*
X17281Y93218D01*
X17348Y93293D01*
X17418Y93365D01*
X17491Y93434D01*
X17566Y93500D01*
X17644Y93564D01*
X17724Y93624D01*
X17807Y93681D01*
X17892Y93734D01*
X17979Y93784D01*
X18068Y93831D01*
X18158Y93874D01*
X18250Y93914D01*
X18344Y93950D01*
X18439Y93982D01*
X18535Y94010D01*
X18633Y94035D01*
X18731Y94055D01*
X18830Y94072D01*
X18930Y94085D01*
X19029Y94094D01*
X19130Y94099D01*
X19230Y94100D01*
X19330Y94097D01*
X19431Y94090D01*
X19530Y94079D01*
X19630Y94064D01*
X19728Y94046D01*
X19826Y94023D01*
X19923Y93996D01*
X20018Y93966D01*
X20113Y93932D01*
X20206Y93894D01*
X20297Y93853D01*
X20387Y93808D01*
X20475Y93760D01*
X20561Y93708D01*
X20645Y93653D01*
X20726Y93594D01*
X20805Y93532D01*
X20882Y93468D01*
X20956Y93400D01*
X21027Y93329D01*
X21096Y93256D01*
X21161Y93180D01*
X21224Y93101D01*
X21283Y93020D01*
X21339Y92937D01*
X21392Y92852D01*
X21441Y92764D01*
X21487Y92675D01*
X21529Y92584D01*
X21568Y92491D01*
X21603Y92397D01*
X21634Y92302D01*
X21662Y92205D01*
X21685Y92108D01*
X21705Y92009D01*
X21721Y91910D01*
X21733Y91811D01*
X21741Y91710D01*
X21745Y91610D01*
X21745Y91510D01*
X21741Y91410D01*
X21733Y91309D01*
X21721Y91210D01*
X21705Y91111D01*
X21685Y91012D01*
X21662Y90915D01*
X21634Y90818D01*
X21603Y90723D01*
X21568Y90629D01*
X21529Y90536D01*
X21487Y90445D01*
X21441Y90356D01*
X21392Y90268D01*
X21339Y90183D01*
X21283Y90100D01*
X21224Y90019D01*
X21161Y89940D01*
X21096Y89864D01*
X21027Y89791D01*
X20956Y89720D01*
X20882Y89652D01*
X20805Y89588D01*
X20726Y89526D01*
X20645Y89467D01*
X20561Y89412D01*
X20475Y89360D01*
X20387Y89312D01*
X20297Y89267D01*
X20206Y89226D01*
X20113Y89188D01*
X20018Y89154D01*
X19923Y89124D01*
X19826Y89097D01*
X19728Y89074D01*
X19630Y89056D01*
X19530Y89041D01*
X19431Y89030D01*
X19330Y89023D01*
X19230Y89020D01*
X19130Y89021D01*
X19029Y89026D01*
X18930Y89035D01*
X18830Y89048D01*
X18731Y89065D01*
X18633Y89085D01*
X18535Y89110D01*
X18439Y89138D01*
X18344Y89170D01*
X18250Y89206D01*
X18158Y89246D01*
X18068Y89289D01*
X17979Y89336D01*
X17892Y89386D01*
X17807Y89439D01*
X17724Y89496D01*
X17644Y89556D01*
X17566Y89620D01*
X17491Y89686D01*
X17418Y89755D01*
X17348Y89827D01*
X17281Y89902D01*
X17217Y89979D01*
X17156Y90059D01*
X17098Y90141D01*
X17044Y90225D01*
X16993Y90312D01*
X16945Y90400D01*
X16901Y90490D01*
X16861Y90582D01*
X16824Y90676D01*
X16791Y90770D01*
X16762Y90866D01*
X16736Y90963D01*
X16714Y91061D01*
X16697Y91160D01*
X16683Y91260D01*
X16673Y91359D01*
X16667Y91460D01*
X16665Y91560D01*
D11*
X185000Y27740D02*
X185000Y-147260D01*
X69000Y-147260D01*
X69000Y27740D01*
D13*
X102108Y30588D02*
X109897Y42272D01*
X102108Y42272D02*
X109897Y30588D01*
X114187Y39676D02*
X117433Y42272D01*
X117433Y30588D01*
X120678Y30588D02*
X114187Y30588D01*
M02*
