G04 EAGLE Gerber RS-274X export*
G75*
%MOMM*%
%FSLAX34Y34*%
%LPD*%
%INSoldermask Top*%
%IPPOS*%
%AMOC8*
5,1,8,0,0,1.08239X$1,22.5*%
G01*
G04 Define Apertures*
%ADD10C,0.705022*%
%ADD11C,0.482181*%
%ADD12C,1.903200*%
%ADD13C,3.719200*%
%ADD14R,1.403200X2.203200*%
%ADD15C,1.303200*%
%ADD16C,0.959600*%
D10*
X44536Y100511D02*
X44536Y78029D01*
X29554Y78029D01*
X29554Y100511D01*
X44536Y100511D01*
X44536Y84726D02*
X29554Y84726D01*
X29554Y91423D02*
X44536Y91423D01*
X44536Y98120D02*
X29554Y98120D01*
X69936Y100511D02*
X69936Y78029D01*
X54954Y78029D01*
X54954Y100511D01*
X69936Y100511D01*
X69936Y84726D02*
X54954Y84726D01*
X54954Y91423D02*
X69936Y91423D01*
X69936Y98120D02*
X54954Y98120D01*
X95336Y100511D02*
X95336Y78029D01*
X80354Y78029D01*
X80354Y100511D01*
X95336Y100511D01*
X95336Y84726D02*
X80354Y84726D01*
X80354Y91423D02*
X95336Y91423D01*
X95336Y98120D02*
X80354Y98120D01*
X120736Y100511D02*
X120736Y78029D01*
X105754Y78029D01*
X105754Y100511D01*
X120736Y100511D01*
X120736Y84726D02*
X105754Y84726D01*
X105754Y91423D02*
X120736Y91423D01*
X120736Y98120D02*
X105754Y98120D01*
X146136Y100511D02*
X146136Y78029D01*
X131154Y78029D01*
X131154Y100511D01*
X146136Y100511D01*
X146136Y84726D02*
X131154Y84726D01*
X131154Y91423D02*
X146136Y91423D01*
X146136Y98120D02*
X131154Y98120D01*
X171536Y100511D02*
X171536Y78029D01*
X156554Y78029D01*
X156554Y100511D01*
X171536Y100511D01*
X171536Y84726D02*
X156554Y84726D01*
X156554Y91423D02*
X171536Y91423D01*
X171536Y98120D02*
X156554Y98120D01*
X196936Y100511D02*
X196936Y78029D01*
X181954Y78029D01*
X181954Y100511D01*
X196936Y100511D01*
X196936Y84726D02*
X181954Y84726D01*
X181954Y91423D02*
X196936Y91423D01*
X196936Y98120D02*
X181954Y98120D01*
X196936Y239679D02*
X196936Y262161D01*
X196936Y239679D02*
X181954Y239679D01*
X181954Y262161D01*
X196936Y262161D01*
X196936Y246376D02*
X181954Y246376D01*
X181954Y253073D02*
X196936Y253073D01*
X196936Y259770D02*
X181954Y259770D01*
X171536Y262161D02*
X171536Y239679D01*
X156554Y239679D01*
X156554Y262161D01*
X171536Y262161D01*
X171536Y246376D02*
X156554Y246376D01*
X156554Y253073D02*
X171536Y253073D01*
X171536Y259770D02*
X156554Y259770D01*
X146136Y262161D02*
X146136Y239679D01*
X131154Y239679D01*
X131154Y262161D01*
X146136Y262161D01*
X146136Y246376D02*
X131154Y246376D01*
X131154Y253073D02*
X146136Y253073D01*
X146136Y259770D02*
X131154Y259770D01*
X120736Y262161D02*
X120736Y239679D01*
X105754Y239679D01*
X105754Y262161D01*
X120736Y262161D01*
X120736Y246376D02*
X105754Y246376D01*
X105754Y253073D02*
X120736Y253073D01*
X120736Y259770D02*
X105754Y259770D01*
X95336Y262161D02*
X95336Y239679D01*
X80354Y239679D01*
X80354Y262161D01*
X95336Y262161D01*
X95336Y246376D02*
X80354Y246376D01*
X80354Y253073D02*
X95336Y253073D01*
X95336Y259770D02*
X80354Y259770D01*
X69936Y262161D02*
X69936Y239679D01*
X54954Y239679D01*
X54954Y262161D01*
X69936Y262161D01*
X69936Y246376D02*
X54954Y246376D01*
X54954Y253073D02*
X69936Y253073D01*
X69936Y259770D02*
X54954Y259770D01*
X44536Y262161D02*
X44536Y239679D01*
X29554Y239679D01*
X29554Y262161D01*
X44536Y262161D01*
X44536Y246376D02*
X29554Y246376D01*
X29554Y253073D02*
X44536Y253073D01*
X44536Y259770D02*
X29554Y259770D01*
D11*
X157457Y147901D02*
X179667Y147901D01*
X157457Y147901D02*
X157457Y156111D01*
X179667Y156111D01*
X179667Y147901D01*
X179667Y152482D02*
X157457Y152482D01*
X157457Y173301D02*
X179667Y173301D01*
X157457Y173301D02*
X157457Y181511D01*
X179667Y181511D01*
X179667Y173301D01*
X179667Y177882D02*
X157457Y177882D01*
D12*
X26830Y157086D03*
X26830Y182486D03*
X52230Y157086D03*
X52230Y182486D03*
X77630Y157086D03*
X77630Y182486D03*
X103030Y157086D03*
X102462Y181560D03*
D13*
X70000Y27740D03*
X184000Y27740D03*
D14*
X162000Y53740D03*
X137000Y53740D03*
X117000Y53740D03*
X92000Y53740D03*
D15*
X104500Y27740D03*
X149500Y27740D03*
D16*
X149860Y54610D03*
X168910Y228600D03*
M02*
